<svg width="21" height="20" viewBox="0 0 21 20" fill="none" xmlns="http://www.w3.org/2000/svg">
<path d="M3.80859 15C3.80859 17.5 4.64193 18.3333 7.14193 18.3333H13.8086C16.3086 18.3333 17.1419 17.5 17.1419 15V8.33334H3.80859V11.5333" stroke="#EE2A7B" stroke-width="1.5" stroke-miterlimit="10" stroke-linecap="round" stroke-linejoin="round"/>
<path d="M18.4163 5.83332V6.66666C18.4163 7.58332 17.9747 8.33332 16.7497 8.33332H4.24967C2.97467 8.33332 2.58301 7.58332 2.58301 6.66666V5.83332C2.58301 4.91666 2.97467 4.16666 4.24967 4.16666H16.7497C17.9747 4.16666 18.4163 4.91666 18.4163 5.83332Z" stroke="#EE2A7B" stroke-width="1.5" stroke-miterlimit="10" stroke-linecap="round" stroke-linejoin="round"/>
<path d="M10.2 4.16668H5.59998C5.31665 3.85835 5.32498 3.38335 5.62498 3.08335L6.80832 1.90001C7.11665 1.59168 7.62498 1.59168 7.93332 1.90001L10.2 4.16668Z" stroke="#EE2A7B" stroke-width="1.5" stroke-miterlimit="10" stroke-linecap="round" stroke-linejoin="round"/>
<path d="M15.392 4.16668H10.792L13.0587 1.90001C13.367 1.59168 13.8753 1.59168 14.1837 1.90001L15.367 3.08335C15.667 3.38335 15.6753 3.85835 15.392 4.16668Z" stroke="#EE2A7B" stroke-width="1.5" stroke-miterlimit="10" stroke-linecap="round" stroke-linejoin="round"/>
<path d="M7.9502 8.33334V12.6167C7.9502 13.2833 8.68353 13.675 9.24186 13.3167L10.0252 12.8C10.3085 12.6167 10.6669 12.6167 10.9419 12.8L11.6835 13.3C12.2335 13.6667 12.9752 13.275 12.9752 12.6083V8.33334H7.9502Z" stroke="#EE2A7B" stroke-width="1.5" stroke-miterlimit="10" stroke-linecap="round" stroke-linejoin="round"/>
</svg>
