<svg width="21" height="20" viewBox="0 0 21 20" fill="none" xmlns="http://www.w3.org/2000/svg">
<path d="M18 4.98335C15.225 4.70835 12.4333 4.56668 9.65 4.56668C8 4.56668 6.35 4.65001 4.7 4.81668L3 4.98335" stroke="#121212" stroke-width="1.5" stroke-linecap="round" stroke-linejoin="round"/>
<path d="M7.58301 4.14166L7.76634 3.04999C7.89967 2.25832 7.99967 1.66666 9.40801 1.66666H11.5913C12.9997 1.66666 13.108 2.29166 13.233 3.05832L13.4163 4.14166" stroke="#121212" stroke-width="1.5" stroke-linecap="round" stroke-linejoin="round"/>
<path d="M13.1753 18.3333H7.82533C5.50033 18.3333 5.42533 17.3167 5.33366 16.0083L4.79199 7.61667" stroke="#121212" stroke-width="1.5" stroke-linecap="round" stroke-linejoin="round"/>
<path d="M16.2087 7.61667L15.667 16.0083" stroke="#121212" stroke-width="1.5" stroke-linecap="round" stroke-linejoin="round"/>
<path d="M9.1084 13.75H11.8834" stroke="white" stroke-width="1.5" stroke-linecap="round" stroke-linejoin="round"/>
<path d="M11.1836 10.4167H12.5836" stroke="white" stroke-width="1.5" stroke-linecap="round" stroke-linejoin="round"/>
<path d="M8.41699 10.4167H9.10866" stroke="white" stroke-width="1.5" stroke-linecap="round" stroke-linejoin="round"/>
</svg>
